<svg xmlns="http://www.w3.org/2000/svg" width="256" height="251.271" viewBox="0 0 256 251.271">
  <g id="Group_33" data-name="Group 33" transform="translate(-42.053 -339.715)">
    <g id="Group_30" data-name="Group 30">
      <path id="Path_108" data-name="Path 108" d="M85.426,586.313h0Z" fill="none" stroke="#231f20" stroke-miterlimit="10" stroke-width="0.928"/>
    </g>
    <g id="Group_32" data-name="Group 32">
      <path id="Path_109" data-name="Path 109" d="M225.1,505.659c6.994-2.477,10.582-13.459,8.014-24.529S222.8,463.094,215.8,465.572s-10.582,13.459-8.014,24.529S218.11,508.136,225.1,505.659Z" fill="#212529"/>
      <path id="Path_110" data-name="Path 110" d="M239.985,506.528a14.78,14.78,0,0,0-4.367-7.6c-1.733,5.175-5.079,9.136-9.587,10.55-6.438,2.02-13.393-1.7-17.832-8.747a20.519,20.519,0,0,0-5.918,18.744L207.9,548.34h41.47Z" fill="#212529"/>
      <path id="Path_111" data-name="Path 111" d="M251.835,444.033c6.994-2.477,10.581-13.459,8.013-24.529s-10.32-18.035-17.315-15.558-10.581,13.459-8.013,24.529S244.84,446.51,251.835,444.033Z" fill="#212529"/>
      <path id="Path_112" data-name="Path 112" d="M270.507,505.659c6.994-2.477,10.582-13.459,8.014-24.529s-10.321-18.036-17.315-15.558-10.582,13.459-8.014,24.529S263.513,508.136,270.507,505.659Z" fill="#212529"/>
      <path id="Path_113" data-name="Path 113" d="M285.388,506.528a14.78,14.78,0,0,0-4.367-7.6c-1.733,5.175-5.079,9.136-9.587,10.55-6.438,2.02-13.393-1.7-17.832-8.747a20.519,20.519,0,0,0-5.918,18.744L253.3,548.34h41.47Z" fill="#212529"/>
      <path id="Path_114" data-name="Path 114" d="M92.422,543l24.72-.24-3.979-26.737a32.635,32.635,0,0,0-14.272-22.414,21.208,21.208,0,0,1-12.506,6.4C77.97,501.125,69.974,497,65.1,489.982l6.162,53.893,21.163.088Z" fill="#c4183c"/>
      <path id="Path_115" data-name="Path 115" d="M85.649,494.746c10.445-1.374,17.6-12.441,15.987-24.719S90.245,448.909,79.8,450.283,62.2,462.724,63.814,475,75.205,496.119,85.649,494.746Z" fill="#c4183c"/>
      <path id="Path_116" data-name="Path 116" d="M83.511,581.766l.329-.023a36.584,36.584,0,0,0,21.485-8.981h0a19.652,19.652,0,0,0,6.688-14.187l.211-7.031a1.957,1.957,0,0,0-1.911-2.015l-25.043-.582a21.951,21.951,0,0,1-21.29-19.362l-21.9-184.719a4.606,4.606,0,0,1,5.664-5.017h0a4.606,4.606,0,0,1,3.483,3.935L73.021,528.3a12.525,12.525,0,0,0,12.133,11.053l26.709.651A9.994,9.994,0,0,1,121.6,550.4l-.378,9.335a27.091,27.091,0,0,1-7.337,17.466l-1.759,1.87,3.056-.813a54.859,54.859,0,0,0,33.738-26.177l.965-1.729a17.637,17.637,0,0,1,15.827-9.034l117.7,2.871a4.67,4.67,0,0,0,4.626-5.87L253.08,407.126A12.527,12.527,0,0,0,244,398.2L75.6,356.335a4.553,4.553,0,0,1-3.4-3.692h0a4.555,4.555,0,0,1,5.591-5.149l168.355,41.7a21.954,21.954,0,0,1,15.934,15.658l35.559,133.5a12.131,12.131,0,0,1-12,15.25l-120.959-2.809a6.976,6.976,0,0,0-6.21,3.5l-1.817,3.164a63.944,63.944,0,0,1-50.75,31.919l-21.716,1.6a4.615,4.615,0,0,1-4.456-6.689h0A4.615,4.615,0,0,1,83.511,581.766Z" fill="#212529"/>
      <g id="Group_31" data-name="Group 31">
        <path id="Path_117" data-name="Path 117" d="M140.439,432.5l5.012,42.234a4.242,4.242,0,0,0,5.819,3.425l42.962-17.581a4.637,4.637,0,0,0,.376-8.409L147.37,427.7A4.77,4.77,0,0,0,140.439,432.5Z" fill="#c4183c"/>
      </g>
      <path id="Path_118" data-name="Path 118" d="M230.936,467.853l1.351,2.492.535.924a34.189,34.189,0,0,1,4.278,21.79l-.245,1.773.509.522a26.154,26.154,0,0,1,6.8,12.55l.585,2.614.248-.964a30.891,30.891,0,0,1,5.551-11.293l.92-1.179-1.212-3.354a31.449,31.449,0,0,1,1.641-25.134,13.26,13.26,0,0,1,15.28-6.7l.537.147,2.915.3L266.715,444.9a14.778,14.778,0,0,0-4.366-7.6c-1.733,5.174-5.079,9.135-9.587,10.549-6.438,2.021-13.393-1.7-17.833-8.746a20.523,20.523,0,0,0-5.918,18.744Z" fill="#212529"/>
    </g>
  </g>
</svg>
