<svg xmlns="http://www.w3.org/2000/svg" width="64" height="62.817" viewBox="0 0 64 62.817">
  <g id="Group_25" data-name="Group 25" transform="translate(-502.173 -499.667)">
    <g id="Group_38" data-name="Group 38">
      <g id="Group_35" data-name="Group 35">
        <path id="Path_251" data-name="Path 251" d="M513.016,561.315h0Z" fill="#fff" stroke="#231f20" stroke-miterlimit="10" stroke-width="0.232"/>
      </g>
      <g id="Group_37" data-name="Group 37">
        <path id="Path_252" data-name="Path 252" d="M547.7,540.15c1.4-.5,2.116-2.692,1.6-4.906s-2.064-3.607-3.463-3.112-2.117,2.692-1.6,4.906S546.3,540.645,547.7,540.15Z" fill="#fff"/>
        <path id="Path_253" data-name="Path 253" d="M554.386,525.536c1.4-.495,2.116-2.691,1.6-4.905s-2.064-3.607-3.463-3.112-2.116,2.692-1.6,4.906S552.987,526.032,554.386,525.536Z" fill="#fff"/>
        <path id="Path_254" data-name="Path 254" d="M559.465,540.726c1.362-.589,1.93-2.829,1.268-5s-2.3-3.46-3.665-2.871-1.93,2.829-1.268,5S558.1,541.314,559.465,540.726Z" fill="#fff"/>
        <path id="Path_255" data-name="Path 255" d="M514.7,550.371l5.168.243-1.02-6.823a6.527,6.527,0,0,0-2.854-4.483,4.236,4.236,0,0,1-2.5,1.281,4.5,4.5,0,0,1-4.258-2.007l-.722-1.242,1.194,11.9Z" fill="#fff"/>
        <path id="Path_256" data-name="Path 256" d="M512.926,537.312c2.089-.275,3.52-2.488,3.2-4.944s-2.278-4.223-4.367-3.948-3.52,2.488-3.2,4.943S510.837,537.587,512.926,537.312Z" fill="#fff"/>
        <path id="Path_257" data-name="Path 257" d="M512.537,560.179l.083-.006a9.145,9.145,0,0,0,5.371-2.245h0a4.915,4.915,0,0,0,1.672-3.547l.053-1.758a.489.489,0,0,0-.478-.5l-6.261-.146a5.487,5.487,0,0,1-5.322-4.84l-5.474-46.18A1.151,1.151,0,0,1,503.6,499.7h0a1.15,1.15,0,0,1,.871.983l5.447,46.129a3.131,3.131,0,0,0,3.033,2.764l6.677.162a2.5,2.5,0,0,1,2.436,2.6l-.095,2.334a6.77,6.77,0,0,1-1.834,4.366l-.44.468.764-.2a13.72,13.72,0,0,0,8.435-6.545l.241-.432a4.407,4.407,0,0,1,3.957-2.258l29.423.717a1.167,1.167,0,0,0,1.157-1.467l-8.739-32.8a3.133,3.133,0,0,0-2.271-2.233l-42.1-10.465a1.139,1.139,0,0,1-.849-.923h0a1.139,1.139,0,0,1,1.4-1.287L553.2,512.036a5.487,5.487,0,0,1,3.984,3.914l8.89,33.375a3.033,3.033,0,0,1-3,3.812l-30.24-.7a1.743,1.743,0,0,0-1.552.875l-.455.791a15.987,15.987,0,0,1-12.687,7.98l-5.429.4a1.154,1.154,0,0,1-1.114-1.672h0A1.153,1.153,0,0,1,512.537,560.179Z" fill="#fff"/>
        <g id="Group_36" data-name="Group 36">
          <path id="Path_258" data-name="Path 258" d="M526.769,522.863l1.253,10.558a1.061,1.061,0,0,0,1.455.857l10.741-4.4a1.16,1.16,0,0,0,.094-2.1l-11.81-6.116A1.193,1.193,0,0,0,526.769,522.863Z" fill="#fff"/>
        </g>
      </g>
    </g>
    <path id="Path_259" data-name="Path 259" d="M555.191,531.686a3.788,3.788,0,0,1,3.841-.764l-.968-4.119c-.1-.445-.656-.659-1.081-.793-.007.009-.012.018-.02.027a4.01,4.01,0,0,1-6,.447l-.026-.023a4.093,4.093,0,0,0-.994,3.542l.511,2.706a8.329,8.329,0,0,1,.684,6.3,12.054,12.054,0,0,1,2.25,2.122,5.215,5.215,0,0,1,1.016-1.367C553.309,537.606,552.846,533.572,555.191,531.686Z" fill="#fff"/>
    <path id="Path_260" data-name="Path 260" d="M552.67,543.654a7.59,7.59,0,0,0-2.5-2.885,3.907,3.907,0,0,1-5.718.464l-.013-.012a4.092,4.092,0,0,0-1.042,3.593l1.123,5.773,9.964,1.174Z" fill="#fff"/>
    <path id="Path_261" data-name="Path 261" d="M562.289,542.225a2.94,2.94,0,0,0-.419-.97c-2.04,2.818-5.428,1.236-6.249.178l0-.005a4.106,4.106,0,0,0-.917,2.167l1.69,7.545H564.4Z" fill="#fff"/>
  </g>
</svg>
